<svg width="10" height="8" viewBox="0 0 10 8" fill="none" xmlns="http://www.w3.org/2000/svg">
<path d="M9.85127 1.05707C9.50336 1.21124 9.12961 1.31541 8.73669 1.36249C9.14211 1.1199 9.44542 0.738102 9.59002 0.288325C9.20913 0.51457 8.79225 0.673823 8.35753 0.759158C8.06518 0.447019 7.67797 0.240127 7.25599 0.170606C6.83402 0.101084 6.4009 0.172821 6.02387 0.37468C5.64685 0.576539 5.34701 0.897226 5.17092 1.28695C4.99483 1.67668 4.95233 2.11364 5.05002 2.52999C4.27823 2.49124 3.5232 2.29064 2.83395 1.9412C2.1447 1.59177 1.53663 1.10131 1.04919 0.501658C0.882525 0.789158 0.786692 1.12249 0.786692 1.47749C0.786506 1.79707 0.865205 2.11176 1.01581 2.39363C1.16641 2.6755 1.38426 2.91584 1.65003 3.09332C1.34181 3.08352 1.04039 3.00023 0.770859 2.85041V2.87541C0.770827 3.32363 0.925872 3.75807 1.20968 4.10499C1.4935 4.45191 1.8886 4.68996 2.32794 4.77874C2.04202 4.85612 1.74225 4.86752 1.45128 4.81208C1.57523 5.19775 1.81669 5.535 2.14184 5.77663C2.467 6.01825 2.85957 6.15215 3.26461 6.15958C2.57704 6.69933 1.72789 6.99211 0.853775 6.99082C0.698934 6.99087 0.544224 6.98182 0.390442 6.96374C1.27772 7.53423 2.31058 7.837 3.36544 7.83582C6.93628 7.83582 8.88836 4.87832 8.88836 2.31332C8.88836 2.22999 8.88628 2.14582 8.88253 2.06249C9.26223 1.7879 9.58999 1.44786 9.85044 1.05832L9.85127 1.05707Z" fill="white"/>
</svg>
