<svg width="10" height="10" viewBox="0 0 10 10" fill="none" xmlns="http://www.w3.org/2000/svg">
<g clip-path="url(#clip0_57_125)">
<path fill-rule="evenodd" clip-rule="evenodd" d="M3.11038 0.444248C3.59913 0.421748 3.75496 0.416748 4.99996 0.416748C6.24496 0.416748 6.40079 0.422165 6.88913 0.444248C7.37746 0.466331 7.71079 0.544248 8.00246 0.657165C8.30788 0.772581 8.58496 0.952998 8.81413 1.18633C9.04746 1.41508 9.22746 1.69175 9.34246 1.99758C9.45579 2.28925 9.53329 2.62258 9.55579 3.11008C9.57829 3.59966 9.58329 3.7555 9.58329 5.00008C9.58329 6.24508 9.57788 6.40092 9.55579 6.88967C9.53371 7.37716 9.45579 7.7105 9.34246 8.00216C9.22746 8.30804 9.04716 8.58517 8.81413 8.81425C8.58496 9.04758 8.30788 9.22758 8.00246 9.34258C7.71079 9.45592 7.37746 9.53341 6.88996 9.55591C6.40079 9.57841 6.24496 9.58342 4.99996 9.58342C3.75496 9.58342 3.59913 9.578 3.11038 9.55591C2.62288 9.53383 2.28954 9.45592 1.99788 9.34258C1.69201 9.22757 1.41488 9.04727 1.18579 8.81425C0.952618 8.58536 0.772174 8.30837 0.657043 8.00258C0.544126 7.71091 0.466626 7.37758 0.444126 6.89008C0.421626 6.4005 0.416626 6.24467 0.416626 5.00008C0.416626 3.75508 0.422043 3.59925 0.444126 3.11091C0.466209 2.62258 0.544126 2.28925 0.657043 1.99758C0.772344 1.69178 0.952926 1.4148 1.18621 1.18591C1.41498 0.95279 1.69182 0.772349 1.99746 0.657165C2.28913 0.544248 2.62246 0.466748 3.10996 0.444248H3.11038ZM6.85204 1.26925C6.36871 1.24716 6.22371 1.24258 4.99996 1.24258C3.77621 1.24258 3.63121 1.24716 3.14788 1.26925C2.70079 1.28966 2.45829 1.36425 2.29663 1.42716C2.08288 1.5105 1.92996 1.60925 1.76954 1.76966C1.61748 1.9176 1.50045 2.0977 1.42704 2.29675C1.36413 2.45841 1.28954 2.70091 1.26913 3.148C1.24704 3.63133 1.24246 3.77633 1.24246 5.00008C1.24246 6.22383 1.24704 6.36883 1.26913 6.85216C1.28954 7.29925 1.36413 7.54175 1.42704 7.70342C1.50038 7.90217 1.61746 8.08258 1.76954 8.2305C1.91746 8.38258 2.09788 8.49967 2.29663 8.573C2.45829 8.63592 2.70079 8.7105 3.14788 8.73092C3.63121 8.753 3.77579 8.75758 4.99996 8.75758C6.22413 8.75758 6.36871 8.753 6.85204 8.73092C7.29913 8.7105 7.54163 8.63592 7.70329 8.573C7.91704 8.48967 8.06996 8.39092 8.23038 8.2305C8.38246 8.08258 8.49954 7.90217 8.57288 7.70342C8.63579 7.54175 8.71038 7.29925 8.73079 6.85216C8.75288 6.36883 8.75746 6.22383 8.75746 5.00008C8.75746 3.77633 8.75288 3.63133 8.73079 3.148C8.71038 2.70091 8.63579 2.45841 8.57288 2.29675C8.48954 2.083 8.39079 1.93008 8.23038 1.76966C8.08243 1.61761 7.90234 1.50059 7.70329 1.42716C7.54163 1.36425 7.29913 1.28966 6.85204 1.26925ZM4.41454 6.413C4.74148 6.54909 5.10553 6.56746 5.44451 6.46497C5.78349 6.36247 6.07637 6.14546 6.27313 5.85102C6.46989 5.55657 6.55832 5.20294 6.52331 4.85054C6.48831 4.49814 6.33205 4.16882 6.08121 3.91883C5.92131 3.75903 5.72796 3.63667 5.5151 3.56056C5.30223 3.48445 5.07514 3.45648 4.85017 3.47867C4.62519 3.50086 4.40794 3.57266 4.21404 3.68889C4.02015 3.80512 3.85444 3.96289 3.72884 4.15085C3.60324 4.33881 3.52087 4.55229 3.48767 4.7759C3.45448 4.99951 3.47127 5.2277 3.53685 5.44405C3.60243 5.66039 3.71516 5.8595 3.86693 6.02705C4.01869 6.1946 4.20572 6.32641 4.41454 6.413ZM3.33413 3.33425C3.55289 3.11549 3.81259 2.94196 4.09842 2.82357C4.38424 2.70517 4.69059 2.64424 4.99996 2.64424C5.30933 2.64424 5.61568 2.70517 5.9015 2.82357C6.18733 2.94196 6.44703 3.11549 6.66579 3.33425C6.88455 3.55301 7.05808 3.81271 7.17648 4.09854C7.29487 4.38436 7.3558 4.69071 7.3558 5.00008C7.3558 5.30946 7.29487 5.6158 7.17648 5.90162C7.05808 6.18745 6.88455 6.44715 6.66579 6.66592C6.22399 7.10772 5.62477 7.35593 4.99996 7.35593C4.37515 7.35593 3.77593 7.10772 3.33413 6.66592C2.89232 6.22411 2.64412 5.62489 2.64412 5.00008C2.64412 4.37527 2.89232 3.77605 3.33413 3.33425ZM7.87829 2.99508C7.9325 2.94394 7.9759 2.88245 8.00592 2.81424C8.03594 2.74603 8.05196 2.67249 8.05305 2.59797C8.05414 2.52345 8.04026 2.44948 8.01224 2.38042C7.98423 2.31136 7.94264 2.24863 7.88994 2.19593C7.83725 2.14323 7.77451 2.10165 7.70546 2.07363C7.6364 2.04561 7.56242 2.03174 7.48791 2.03282C7.41339 2.03391 7.33985 2.04994 7.27164 2.07995C7.20343 2.10997 7.14193 2.15337 7.09079 2.20758C6.99134 2.31301 6.93689 2.45305 6.939 2.59797C6.94111 2.74289 6.99962 2.88128 7.10211 2.98377C7.20459 3.08625 7.34299 3.14476 7.48791 3.14687C7.63283 3.14899 7.77286 3.09454 7.87829 2.99508Z" fill="white"/>
</g>
<defs>
<clipPath id="clip0_57_125">
<rect width="10" height="10" fill="white"/>
</clipPath>
</defs>
</svg>
